<svg xmlns="http://www.w3.org/2000/svg" xmlns:xlink="http://www.w3.org/1999/xlink" viewBox="0 0 1119 260.81"><defs><style>.cls-1{fill:url(#Dégradé_sans_nom_81);}.cls-2{fill:#000f69;}</style><linearGradient id="Dégradé_sans_nom_81" x1="38.3" y1="38.3" x2="222.56" y2="222.56" gradientUnits="userSpaceOnUse"><stop offset="0" stop-color="#0013fa"/><stop offset="1" stop-color="#dc2e89"/></linearGradient></defs><g id="Calque_2" data-name="Calque 2"><g id="Calque_1-2" data-name="Calque 1"><path class="cls-1" d="M111,237.45A108.94,108.94,0,0,1,21.9,122.63c3.74-53.58,47.15-97,100.73-100.73a108.77,108.77,0,0,1,73.06,195.49l-35-48.29c22.7-5.91,39.81-26.44,39.81-51a53.1,53.1,0,0,0-52.57-52.57h-50l0,15a11.76,11.76,0,0,0,11.76,11.77h38.3a25.76,25.76,0,0,1,25.81,26.51c-.36,14.16-12.67,25.12-26.84,25.12H109.58a11.76,11.76,0,0,0-11.76,11.76v15h31.72L179.22,239l6.84,9.4.1,0c1.24-.59,2.47-1.21,3.68-1.83l1.19-.62c.84-.44,1.67-.9,2.49-1.35l1.3-.72c1-.58,2-1.16,3-1.76.7-.42,1.39-.86,2.08-1.3l1-.63a131.16,131.16,0,0,0,59.93-109.71c0-75-63.62-135.4-139.72-130.08C56.85,4.81,4.81,56.85.33,121.09-5,197.19,55.42,260.81,130.41,260.81h0A23.71,23.71,0,0,0,111,237.45Z"/><path class="cls-2" d="M309.27,85.31a11.2,11.2,0,0,1,22.4,0,11.2,11.2,0,1,1-22.4,0Zm2.78,26h17v90.78h-17Z"/><path class="cls-2" d="M457.14,202.06H436.73l-53.92-74.13H362.59v74.13h-17V60.93h49A33.86,33.86,0,0,1,428,94.43a33.79,33.79,0,0,1-25.38,32.51Zm-94.55-91.18h31.92a16.45,16.45,0,0,0,0-32.9H362.59Z"/><path class="cls-2" d="M531.67,160.83h-70v.4c2,15.06,13.28,26.36,26.37,26.56a34.38,34.38,0,0,0,22.2-9.51l14.27,8.52a54,54,0,0,1-12.09,10.11c-6.94,4.16-15.46,6.34-24,6.74a40.64,40.64,0,0,1-30.72-13.88,46.75,46.75,0,0,1-12.29-28.54,29,29,0,0,1-.2-4.16,49.44,49.44,0,0,1,1.19-10.71,47.74,47.74,0,0,1,11.3-22,41.56,41.56,0,0,1,61.64,0,45.93,45.93,0,0,1,11.3,22C532.07,154.49,531.87,159.05,531.67,160.83Zm-17.84-14.27-.19-.4c-4-11.69-14.08-19.62-25.18-19.62-10.9,0-21,7.93-25.17,19.62l-.2.4Z"/><path class="cls-2" d="M615.52,111.28l-36.87,90.78H560.22l-36.87-90.78h18.44l27.75,68.18,27.55-68.18Z"/><path class="cls-2" d="M704.13,156.67a47.71,47.71,0,0,1-47.57,47.57,47.47,47.47,0,1,1,0-94.94,47.37,47.37,0,0,1,47.57,47.37Zm-17,0a30.53,30.53,0,1,0-30.52,30.52A30.37,30.37,0,0,0,687.08,156.67Z"/><path class="cls-2" d="M710.07,202.06V56.57h17V202.06Z"/><path class="cls-2" d="M740,163.21V111.28h17v51.93c0,13.28,11.1,24.18,25,24.18,13.67,0,25-10.9,25-24.18V111.28h17v51.93a40.5,40.5,0,0,1-12.49,29.14,43.4,43.4,0,0,1-59.26,0A40.32,40.32,0,0,1,740,163.21Z"/><path class="cls-2" d="M846.45,171.93v-44.4H833V111.28h13.48V76.19h17v35.09h28v16.25h-28v44c0,7.33,6.34,14.27,13.48,14.27h15.26l4.36,16.25h-20A30,30,0,0,1,846.45,171.93Z"/><path class="cls-2" d="M901,85.31a11.2,11.2,0,0,1,22.4,0,11.2,11.2,0,1,1-22.4,0Zm2.78,26h17v90.78h-17Z"/><path class="cls-2" d="M1026,156.67a47.71,47.71,0,0,1-47.58,47.57,47.47,47.47,0,1,1,0-94.94A47.37,47.37,0,0,1,1026,156.67Zm-17,0a30.53,30.53,0,1,0-30.53,30.52A30.37,30.37,0,0,0,1009,156.67Z"/><path class="cls-2" d="M1119,153.3v48.76h-17V153.3a27,27,0,0,0-26.76-27.16c-14.66,0-26.75,12.29-26.75,27.16v48.76h-17V111.28h17V120c7.73-6,17-10.51,26.75-10.51a43.61,43.61,0,0,1,31.12,12.69A44.1,44.1,0,0,1,1119,153.3Z"/></g></g></svg>